<?xml version="1.0" standalone="no"?>
<!DOCTYPE svg PUBLIC "-//W3C//DTD SVG 1.1//EN" "http://www.w3.org/Graphics/SVG/1.1/DTD/svg11.dtd" >
<svg xmlns="http://www.w3.org/2000/svg">
<metadata>
Created by FontPrep 20130207 at Mon Jun 30 20:52:23 2014
 By Nic Lauretano
HTF Knockout Copr. 1994-7 The Hoefler Type Foundry, Inc. http://www.typography.com
</metadata>
<defs>
<font id="dd3c5acb02c641fef32e6cbafc0d5877" horiz-adv-x='1024' >
  <font-face 
    font-family="Knockout-HTF66-FullFlyweight"
    font-weight="500"
    font-stretch="normal"
    units-per-em="2048"
    panose-1="0 0 0 0 0 0 0 0 0 0"
    ascent="1638"
    descent="-410"
    x-height="1006"
    cap-height="1364"
    bbox="-446 -375 1778 1692"
    underline-thickness="122"
    underline-position="-164"
    unicode-range="U+0020-FB02"
  />
<missing-glyph horiz-adv-x="1024" 
 />
    <glyph glyph-name=".notdef" horiz-adv-x="1024" 
 />
    <glyph glyph-name=".null" horiz-adv-x="0" 
 />
    <glyph glyph-name="nonmarkingreturn" horiz-adv-x="681" 
 />
    <glyph glyph-name="space" unicode=" " horiz-adv-x="186" 
 />
    <glyph glyph-name="exclam" unicode="!" horiz-adv-x="231" 
d="M172 0h-115v209h115v-209zM47 1364h137v-592l-47 -448h-43l-47 448v592z" />
    <glyph glyph-name="quotedbl" unicode="&#x22;" horiz-adv-x="303" 
d="M147 1364l-63 -401h-64l41 401h86zM281 1364l-74 -401h-66l54 401h86z" />
    <glyph glyph-name="numbersign" unicode="#" horiz-adv-x="606" 
d="M387 872h-125l-45 -380h127zM616 872h-143l-45 -380h150v-76h-158l-47 -416h-84l47 416h-127l-47 -416h-84l47 416h-135v76h143l43 380h-147v76h155l49 416h84l-47 -416h125l49 416h84l-47 -416h135v-76z" />
    <glyph glyph-name="dollar" unicode="$" horiz-adv-x="454" 
d="M164 1493h131v-119q129 -39 129 -244v-182h-135v207q0 61 -47 62q-55 0 -56 -62q0 -116 14 -166q14 -51 17 -60q8 -38 28 -77t48 -113q137 -334 137 -493q0 -203 -135 -252v-125h-131v125q-131 37 -131 239v166h131v-190q0 -72 58 -72t59 72q0 175 -124 463t-124 438
q0 207 131 258v125z" />
    <glyph glyph-name="percent" unicode="%" horiz-adv-x="757" 
d="M618 123v391q0 20 -12 34t-28 13q-41 0 -41 -47v-391q0 -45 41 -45q16 0 28 12t12 33zM219 844v391q0 47 -41 47q-16 0 -28 -13t-13 -34v-391q1 -20 13 -34t28 -13q41 0 41 47zM721 135q0 -72 -40 -115t-103 -43t-105 43q-41 43 -41 115v369q0 72 41 114t105 41
q64 0 103 -42q40 -42 40 -113v-369zM690 1354l-571 -1389l-53 41l571 1389zM324 856q0 -72 -41 -115t-105 -43t-103 43q-40 43 -40 115v367q0 73 40 115q41 42 105 42t104 -42t40 -115v-367z" />
    <glyph glyph-name="ampersand" unicode="&#x26;" horiz-adv-x="675" 
d="M268 164q34 0 51 35q-39 102 -77 344q-53 -82 -54 -221q0 -74 23 -116t57 -42zM377 1092q0 114 -49 114t-49 -93t32 -245q66 110 66 224zM647 217q0 -117 -34 -175t-91 -58q-82 0 -127 82q-53 -82 -146 -82t-151 87q-57 87 -57 222t45 253t109 193q-63 219 -64 322
q0 319 213 319q174 0 174 -270q0 -217 -160 -418q31 -195 56 -293q39 100 39 287h135q-8 -283 -115 -469q10 -59 51 -59t41 78v40h82v-59z" />
    <glyph glyph-name="quotesingle" unicode="'" horiz-adv-x="200" 
d="M207 1364l-103 -401h-73l63 401h113z" />
    <glyph glyph-name="parenleft" unicode="(" horiz-adv-x="354" 
d="M92 635q0 343 51 537t148 329l33 -22q-66 -105 -92 -283t-26 -561t26 -561t92 -283l-33 -22q-95 135 -147 329t-52 537z" />
    <glyph glyph-name="parenright" unicode=")" horiz-adv-x="354" 
d="M262 635q0 -342 -51 -537t-148 -329l-32 22q65 105 91 283t25 561q0 383 -25 561q-26 178 -91 283l32 22q95 -135 147 -329t52 -537z" />
    <glyph glyph-name="asterisk" unicode="*" horiz-adv-x="382" 
d="M219 1034q0 -16 -10 -16h-33q-8 0 -8 44t8 103q-115 -94 -129 -73l-16 26q-6 8 10 19q76 41 119 57q-63 23 -119 57q-14 10 -10 17l16 28q2 8 21 0q55 -33 108 -73q-10 53 -10 131q0 18 10 18h35q10 0 10 -18q0 -78 -10 -131q117 91 129 73l16 -28q4 -6 -10 -17
q-55 -35 -119 -57q53 -20 117 -57q18 -11 12 -19l-16 -26q-12 -20 -129 73q8 -59 8 -131z" />
    <glyph glyph-name="plus" unicode="+" horiz-adv-x="460" 
d="M406 629h-113v-125h-125v125h-113v123h113v125h125v-125h113v-123z" />
    <glyph glyph-name="comma" unicode="," horiz-adv-x="196" 
d="M162 18q0 -70 -36 -118t-91 -47v47q59 0 59 100h-59v217h127v-199z" />
    <glyph glyph-name="hyphen" unicode="-" horiz-adv-x="282" 
d="M260 571h-237v136h237v-136z" />
    <glyph glyph-name="period" unicode="." horiz-adv-x="196" 
d="M162 0h-127v215h127v-215z" />
    <glyph glyph-name="slash" unicode="/" horiz-adv-x="380" 
d="M410 1493l-355 -1624h-94l354 1624h95z" />
    <glyph glyph-name="zero" unicode="0" horiz-adv-x="485" 
d="M283 199v966q0 45 -41 45t-41 -45v-966q0 -45 41 -45t41 45zM436 213q0 -101 -54 -165t-139 -64t-140 63q-54 63 -54 166v938q0 101 54 165q53 64 139 64t140 -63t54 -166v-938z" />
    <glyph glyph-name="one" unicode="1" horiz-adv-x="319" 
d="M236 0h-152v1298q63 0 63 66h89v-1364z" />
    <glyph glyph-name="two" unicode="2" horiz-adv-x="411" 
d="M395 1124q0 -38 -3 -76t-5 -65t-10 -68t-13 -68q-7 -35 -96 -299q-90 -264 -92 -380h207v-168h-367v37q0 135 26 253t100 329t94 307t20 229q0 57 -44 57t-44 -57v-213h-139v211q0 94 48 161t130 66q188 0 188 -256z" />
    <glyph glyph-name="three" unicode="3" horiz-adv-x="432" 
d="M389 213q0 -100 -51 -165q-51 -64 -133 -64t-130 66t-48 159v176h141v-178q0 -47 37 -47t37 43v370q0 39 -35 39h-68v150h68q35 0 35 39v358q0 45 -37 45t-37 -47v-180h-141v176q0 94 47 161q47 66 130 66t134 -64t51 -165v-322q0 -90 -78 -141q78 -51 78 -141v-334z" />
    <glyph glyph-name="four" unicode="4" horiz-adv-x="419" 
d="M211 420v352l-70 -352h70zM401 268h-49v-268h-141v268h-201v133l230 963h112v-944h49v-152z" />
    <glyph glyph-name="five" unicode="5" horiz-adv-x="436" 
d="M412 1364q0 -168 -88 -168h-123l-13 -371q34 41 92 41t90 -42t31 -107v-504q0 -100 -51 -165q-51 -64 -133 -64t-130 66t-48 159v166h141v-168q0 -47 37 -47t37 43v479q0 16 -10 28t-24 13q-14 0 -23 -12q-10 -12 -11 -29l-141 12l23 670h344z" />
    <glyph glyph-name="six" unicode="6" horiz-adv-x="454" 
d="M266 199v432q0 37 -36 37t-35 -37v-432q-1 -39 35 -39t36 39zM414 221q0 -104 -50 -171q-50 -66 -134 -66t-133 66q-50 66 -50 171v922q0 102 51 170q51 67 133 67t130 -66t49 -161v-184h-140v188q0 47 -38 47t-37 -43v-379q35 41 94 41t92 -42t33 -107v-453z" />
    <glyph glyph-name="seven" unicode="7" horiz-adv-x="409" 
d="M31 1188v176h366v-70q-154 -698 -182 -1294h-164q51 586 199 1188h-219z" />
    <glyph glyph-name="eight" unicode="8" horiz-adv-x="464" 
d="M270 203v377q0 41 -38 41t-37 -41v-377q0 -43 38 -43q16 0 27 12q10 13 10 31zM270 1161q0 43 -38 43t-37 -43v-366q0 -17 11 -29t26 -12t27 12q11 13 11 29v366zM418 213q0 -100 -51 -165q-51 -64 -135 -64t-134 64q-51 64 -51 165v326q0 100 68 147q-68 47 -68 148v317
q0 100 51 165q51 64 134 64t135 -64q51 -65 51 -165v-317q0 -100 -68 -148q68 -47 68 -147v-326z" />
    <glyph glyph-name="nine" unicode="9" horiz-adv-x="462" 
d="M268 725v438q0 41 -37 41t-36 -41v-438q1 -37 37 -37t36 37zM416 221q0 -104 -52 -171q-52 -66 -134 -66t-133 66q-50 66 -50 159v178h139v-180q0 -47 41 -47t41 45v373q-39 -43 -96 -43t-91 44t-34 111v453q0 102 50 170q50 67 133 67t135 -67q51 -68 51 -170v-922z" />
    <glyph glyph-name="colon" unicode=":" horiz-adv-x="196" 
d="M162 0h-127v215h127v-215zM162 657h-127v215h127v-215z" />
    <glyph glyph-name="semicolon" unicode=";" horiz-adv-x="196" 
d="M162 18q0 -70 -36 -118t-91 -47v47q59 0 59 100h-59v217h127v-199zM162 657h-127v215h127v-215z" />
    <glyph glyph-name="less" unicode="&#x3c;" horiz-adv-x="698" 
d="M567 358l-463 308v34l463 306v-140l-280 -182l280 -186v-140z" />
    <glyph glyph-name="equal" unicode="=" horiz-adv-x="419" 
d="M385 510h-350v125h350v-125zM385 745h-350v125h350v-125z" />
    <glyph glyph-name="greater" unicode="&#x3e;" horiz-adv-x="698" 
d="M594 666l-463 -306v140l281 182l-281 186v140l463 -308v-34z" />
    <glyph glyph-name="question" unicode="?" horiz-adv-x="405" 
d="M229 0h-114v209h114v-209zM381 1106q0 -205 -105 -461q-55 -143 -55 -299h-98q0 166 74 469q41 184 41 259t-10 103t-33 27q-43 0 -43 -65v-178h-134v194q0 97 46 161t133 64q184 0 184 -274z" />
    <glyph glyph-name="at" unicode="@" horiz-adv-x="686" 
d="M365 666q-35 0 -67 -77t-32 -162t41 -85t62 109l28 147q-2 68 -32 68zM352 737q54 0 60 -67l14 63h84l-59 -299q-29 -127 32 -127q49 0 77 78q28 77 28 225t-66 247t-169 99t-179 -134t-76 -335t74 -317t184 -117q110 0 172 74l35 -47q-74 -94 -210 -94t-231 130t-95 370
t97 390t236 150t218 -133t79 -293t-50 -258t-136 -98q-94 0 -88 114q-14 -44 -44 -72q-29 -28 -65 -28t-64 43t-28 143t50 197q50 96 120 96z" />
    <glyph glyph-name="A" unicode="A" horiz-adv-x="428" 
d="M240 422l-29 602l-41 -602h70zM424 0h-164l-10 248h-94l-17 -248h-141l123 1364h178z" />
    <glyph glyph-name="B" unicode="B" horiz-adv-x="466" 
d="M279 217v340q0 55 -31 55h-41v-450h41q31 0 31 55zM279 821v324q0 55 -31 55h-41v-434h41q31 0 31 55zM434 215q0 -119 -53 -167t-127 -48h-207v1364h207q74 0 127 -48t53 -167v-313q0 -84 -74 -142q74 -59 74 -141v-338z" />
    <glyph glyph-name="C" unicode="C" horiz-adv-x="444" 
d="M422 217q0 -105 -47 -169t-134 -64t-148 65q-60 66 -60 168v930q0 100 61 167q60 66 146 66t134 -63t48 -170v-260h-133v266q0 55 -47 55t-47 -55v-942q0 -55 47 -55t47 55v268h133v-262z" />
    <glyph glyph-name="D" unicode="D" horiz-adv-x="483" 
d="M287 217v928q0 55 -39 55h-41v-1038h41q39 0 39 55zM446 215q0 -119 -53 -167t-129 -48h-217v1364h217q76 0 129 -48t53 -167v-934z" />
    <glyph glyph-name="E" unicode="E" horiz-adv-x="395" 
d="M377 0h-330v1364h330v-164h-172v-416h117v-163h-117v-457h172v-164z" />
    <glyph glyph-name="F" unicode="F" horiz-adv-x="380" 
d="M365 1200h-160v-422h127v-164h-127v-614h-158v1364h318v-164z" />
    <glyph glyph-name="G" unicode="G" horiz-adv-x="460" 
d="M434 0h-98l-14 51q-33 -67 -113 -67t-127 60t-47 173v930q0 102 56 168q56 65 140 65t138 -65q53 -66 53 -168v-279h-143v291q-1 49 -45 49t-44 -49v-971q0 -51 43 -51t43 51v332h-36v146h194v-666z" />
    <glyph glyph-name="H" unicode="H" horiz-adv-x="495" 
d="M449 0h-158v586h-84v-586h-160v1364h160v-606h84v606h158v-1364z" />
    <glyph glyph-name="I" unicode="I" horiz-adv-x="253" 
d="M207 0h-160v1364h160v-1364z" />
    <glyph glyph-name="J" unicode="J" horiz-adv-x="438" 
d="M399 205q0 -97 -52 -159t-136 -62t-140 62t-57 159v338h146v-338q0 -49 41 -49t41 49v1159h157v-1159z" />
    <glyph glyph-name="K" unicode="K" horiz-adv-x="462" 
d="M207 0h-160v1364h160v-606l92 606h152l-105 -584l109 -780h-160l-53 553l-35 -203v-350z" />
    <glyph glyph-name="L" unicode="L" horiz-adv-x="372" 
d="M367 0h-320v1364h158v-1206h162v-158z" />
    <glyph glyph-name="M" unicode="M" horiz-adv-x="671" 
d="M625 0h-152v1100l-16 -299l-80 -801h-111l-69 801l-15 299v-1100h-135v1364h209l59 -537l27 -346l25 346l55 537h203v-1364z" />
    <glyph glyph-name="N" unicode="N" horiz-adv-x="516" 
d="M473 0h-133l-133 674l-31 184v-858h-133v1364h164l110 -664l25 -188v852h131v-1364z" />
    <glyph glyph-name="O" unicode="O" 
d="M281 205v954q0 49 -41 49t-41 -49v-954q0 -49 41 -49t41 49zM442 217q0 -102 -58 -168q-58 -65 -143 -65t-145 65q-59 66 -59 168v930q0 100 59 167q58 66 144 66t144 -66t58 -167v-930z" />
    <glyph glyph-name="P" unicode="P" horiz-adv-x="460" 
d="M279 754v391q0 55 -29 55h-43v-500h43q29 1 29 54zM434 764q0 -119 -53 -167t-127 -48h-47v-549h-160v1364h207q74 0 127 -48t53 -167v-385z" />
    <glyph glyph-name="Q" unicode="Q" 
d="M281 1159q0 49 -41 49t-41 -49v-954q0 -49 41 -49q18 0 26 10l-39 39l54 69v885zM420 -16q-42 0 -70 32q-46 -32 -120 -32t-134 65q-59 66 -59 168v930q0 100 59 167q60 66 144 66t143 -66t59 -167v-930q0 -49 -16 -94q14 -16 63 -17v-106q-27 -16 -69 -16z" />
    <glyph glyph-name="R" unicode="R" horiz-adv-x="473" 
d="M276 797v348q0 55 -28 55h-41v-459h41q28 1 28 56zM459 0h-140q-16 0 -27 73t-11 138v321q0 53 -35 54h-39v-586h-160v1364h207q74 0 127 -48t53 -167v-348q0 -78 -74 -142q78 -63 78 -141v-291q0 -90 21 -221v-6z" />
    <glyph glyph-name="S" unicode="S" horiz-adv-x="450" 
d="M426 260q0 -156 -61 -216t-149 -60t-142 64q-53 64 -54 185v166h138v-190q0 -72 56 -72t56 72q0 176 -100 405q-147 346 -147 482q0 285 213 284q86 0 135 -63t49 -187v-182h-137v207q0 61 -47 62q-53 0 -54 -62q0 -116 14 -166q14 -51 17 -60q8 -38 28 -77t48 -113
q137 -323 137 -479z" />
    <glyph glyph-name="T" unicode="T" horiz-adv-x="405" 
d="M401 1190h-118v-1190h-160v1190h-119v174h397v-174z" />
    <glyph glyph-name="U" unicode="U" horiz-adv-x="479" 
d="M436 217q0 -102 -55 -168q-55 -65 -139 -65t-142 65q-57 66 -57 168v1147h158v-1159q0 -49 42 -49t42 49v1159h151v-1147z" />
    <glyph glyph-name="V" unicode="V" horiz-adv-x="434" 
d="M432 1364l-137 -1364h-156l-137 1364h158l61 -924l66 924h145z" />
    <glyph glyph-name="W" unicode="W" horiz-adv-x="634" 
d="M645 1364l-145 -1364h-131l-58 793l-71 -793h-131l-113 1364h156l45 -893l65 893h127l49 -893l62 893h145z" />
    <glyph glyph-name="X" unicode="X" horiz-adv-x="440" 
d="M438 0h-157l-62 434l-67 -434h-152l133 672l-123 692h158l57 -483l68 483h149l-129 -657z" />
    <glyph glyph-name="Y" unicode="Y" horiz-adv-x="430" 
d="M287 0h-158v535l-135 829h153l72 -565l66 565h153l-151 -829v-535z" />
    <glyph glyph-name="Z" unicode="Z" horiz-adv-x="378" 
d="M356 164v-164h-350v72l197 1122h-189v170h353v-72l-199 -1128h188z" />
    <glyph glyph-name="bracketleft" unicode="[" horiz-adv-x="364" 
d="M377 -203h-254v1676h254v-91h-146v-1495h146v-90z" />
    <glyph glyph-name="backslash" unicode="\" horiz-adv-x="401" 
d="M430 -131h-94l-354 1624h94z" />
    <glyph glyph-name="bracketright" unicode="]" horiz-adv-x="364" 
d="M262 -203h-254v90h146v1495h-146v91h254v-1676z" />
    <glyph glyph-name="asciicircum" unicode="^" horiz-adv-x="346" 
d="M279 1094q-92 0 -111 143q-23 -143 -111 -143q-23 0 -51 16v47q35 0 75 55t56 152h68q16 -96 56 -152t75 -55v-47q-29 -16 -57 -16z" />
    <glyph glyph-name="underscore" unicode="_" horiz-adv-x="454" 
d="M455 -135h-455v135h455v-135z" />
    <glyph glyph-name="grave" unicode="`" horiz-adv-x="200" 
d="M180 1096h-74l-104 268h115z" />
    <glyph glyph-name="a" unicode="a" horiz-adv-x="366" 
d="M205 182v303q-57 -72 -58 -155v-148q0 -49 29 -49t29 49zM352 -16h-33q-47 0 -75 71q-23 -71 -88 -71t-100 57q-34 57 -33 158v108q0 111 47 189t135 161v172q0 43 -24 43t-23 -43v-122h-121v100q0 97 43 157t107 60q65 0 101 -59t36 -158v-647q0 -41 28 -49v-127z" />
    <glyph glyph-name="b" unicode="b" horiz-adv-x="397" 
d="M227 174v657q-1 41 -27 41t-26 -41v-657q0 -41 26 -41t27 41zM360 135q0 -63 -30 -107t-80 -44q-49 0 -76 61l-8 -45h-123v1364h131v-403q27 63 76 63t80 -45t30 -109v-735z" />
    <glyph glyph-name="c" unicode="c" horiz-adv-x="368" 
d="M166 180q0 -47 33 -47t32 47v189h109v-170q0 -95 -40 -155t-106 -60t-111 60q-46 60 -46 155v610q0 95 46 155t112 60q65 0 105 -59t40 -156v-172h-109v188q0 47 -30 47q-15 0 -25 -12t-10 -35v-645z" />
    <glyph glyph-name="d" unicode="d" horiz-adv-x="395" 
d="M223 174v657q1 41 -27 41t-28 -41v-657q0 -41 28 -41t27 41zM352 0h-116l-13 45q-29 -61 -77 -61t-78 44t-31 107v735q0 62 31 108q32 46 76 46t79 -55v395h129v-1364z" />
    <glyph glyph-name="e" unicode="e" horiz-adv-x="376" 
d="M231 592v233q1 47 -31 47t-32 -47v-233h63zM344 199q0 -95 -42 -155t-108 -60t-111 60q-46 60 -46 155v608q0 93 46 155t112 62q65 0 107 -60t42 -157v-342h-176v-285q0 -47 32 -47t31 47v189h113v-170z" />
    <glyph glyph-name="f" unicode="f" horiz-adv-x="258" 
d="M250 864h-55v-864h-132v864h-49v142h49v110q0 124 40 186t135 62h14v-141h-16q-45 0 -46 -80v-137h60v-142z" />
    <glyph glyph-name="g" unicode="g" horiz-adv-x="387" 
d="M244 -174v176q0 51 -39 51t-39 -51v-176q0 -20 10 -36t28 -17q18 1 28 17q12 16 12 36zM227 522v307q1 41 -29 41t-30 -41v-307q0 -41 30 -41t29 41zM305 1094h98q5 -23 5 -64q0 -117 -56 -117q-12 0 -33 9q35 -53 35 -131v-232q0 -96 -45 -162t-110 -65q-16 0 -21 4
q-33 0 -33 -69t56 -68q78 -1 122 -51t44 -144v-162q0 -215 -168 -215q-74 -1 -121 53t-47 162v142q0 68 47 122q-55 29 -55 117q0 55 27 96q28 41 65 48q-76 33 -76 200v240q0 97 46 157t114 60l45 -4q61 0 61 74z" />
    <glyph glyph-name="h" unicode="h" horiz-adv-x="401" 
d="M360 0h-131v831q1 41 -27 41t-28 -41v-831h-131v1364h131v-403q31 63 79 63t78 -45t29 -109v-870z" />
    <glyph glyph-name="i" unicode="i" horiz-adv-x="217" 
d="M174 0h-131v1006h131v-1006zM168 1114h-119v180h119v-180z" />
    <glyph glyph-name="j" unicode="j" horiz-adv-x="217" 
d="M174 -113q0 -125 -40 -186t-134 -61h-14v141h16q41 0 41 78v1147h131v-1119zM168 1114h-119v180h119v-180z" />
    <glyph glyph-name="k" unicode="k" horiz-adv-x="385" 
d="M174 0h-131v1364h131v-803l72 447h121l-84 -469l96 -539h-131l-60 406l-14 -72v-334z" />
    <glyph glyph-name="l" unicode="l" horiz-adv-x="217" 
d="M174 0h-131v1364h131v-1364z" />
    <glyph glyph-name="m" unicode="m" horiz-adv-x="589" 
d="M549 0h-131v823q0 41 -28 41t-28 -41v-823h-131v831q0 17 -9 29t-19 12q-9 0 -19 -12t-10 -29v-831h-131v1006h125l6 -45q31 63 88 63t90 -84q31 84 92 84q43 0 74 -45t31 -109v-870z" />
    <glyph glyph-name="n" unicode="n" horiz-adv-x="401" 
d="M360 0h-131v831q1 41 -27 41t-28 -41v-831h-131v1006h125l6 -45q31 63 78 63t78 -45t30 -109v-870z" />
    <glyph glyph-name="o" unicode="o" horiz-adv-x="391" 
d="M223 174v657q1 41 -27 41t-28 -41v-657q0 -41 28 -41t27 41zM354 199q0 -95 -46 -155t-112 -60t-113 60q-46 60 -46 155v608q0 93 46 155t113 62q66 0 112 -61t46 -156v-608z" />
    <glyph glyph-name="p" unicode="p" horiz-adv-x="397" 
d="M227 174v657q-1 41 -27 41t-26 -41v-657q0 -41 26 -41t27 41zM360 135q0 -65 -30 -109t-76 -44q-47 0 -80 55v-391h-131v1360h121l10 -45q29 61 78 61t79 -44t29 -108v-735z" />
    <glyph glyph-name="q" unicode="q" horiz-adv-x="395" 
d="M223 174v657q1 41 -27 41t-28 -41v-657q0 -41 28 -41t27 41zM352 -354h-129v399q-29 -61 -77 -61t-78 44t-31 107v735q0 62 31 108q32 46 78 46t77 -63l6 45h123v-1360z" />
    <glyph glyph-name="r" unicode="r" horiz-adv-x="290" 
d="M281 836q-57 0 -82 -20t-25 -79v-737h-131v1006h123l8 -78q31 96 107 96v-188z" />
    <glyph glyph-name="s" unicode="s" horiz-adv-x="358" 
d="M27 209v94h118v-123q0 -49 33 -49q39 1 39 67t-13 111t-44 105t-47 95q-16 34 -45 98q-41 88 -41 188q0 101 41 165q42 64 114 64t113 -62t41 -157v-115h-115v129q0 51 -37 51t-37 -48t15 -105t45 -115q29 -59 47 -94l24 -46q28 -55 33 -79q7 -24 17 -57t10 -123
q0 -89 -39 -155t-112 -64q-73 0 -117 57t-43 168z" />
    <glyph glyph-name="t" unicode="t" horiz-adv-x="262" 
d="M250 864h-55v-610q0 -166 12 -254h-117q-27 106 -27 254v610h-51v142h60v143l123 45v-188h55v-142z" />
    <glyph glyph-name="u" unicode="u" horiz-adv-x="399" 
d="M356 0h-123l-6 45q-29 -61 -77 -61t-78 44t-31 107v871h129v-832q0 -16 9 -28t22 -13q27 0 26 41v832h129v-1006z" />
    <glyph glyph-name="v" unicode="v" horiz-adv-x="352" 
d="M338 1006l-105 -1006h-110l-107 1006h131l25 -424l10 -197l35 621h121z" />
    <glyph glyph-name="w" unicode="w" horiz-adv-x="555" 
d="M543 1006l-107 -1006h-117l-26 336l-17 258l-16 -258l-29 -336h-116l-101 1006h138l18 -412l16 -262l15 262l28 412h113l23 -412l16 -262l16 262l29 412h117z" />
    <glyph glyph-name="x" unicode="x" horiz-adv-x="358" 
d="M348 0h-133l-35 328l-41 -328h-129l92 487l-92 519h129l39 -336l37 336h133l-92 -482z" />
    <glyph glyph-name="y" unicode="y" horiz-adv-x="344" 
d="M39 -360h-10v141h22q41 0 49 78l15 161l-105 986h131l25 -424l10 -197l35 621h121l-117 -1119q-16 -151 -48 -199t-128 -48z" />
    <glyph glyph-name="z" unicode="z" horiz-adv-x="323" 
d="M291 156v-156h-277v47l148 805h-129v154h268v-48l-145 -802h135z" />
    <glyph glyph-name="braceleft" unicode="{" horiz-adv-x="421" 
d="M365 -203h-39q-106 0 -165 74q-114 145 2 465q60 168 60 190q0 68 -82 68h-63v82h63q82 0 82 67q0 23 -60 191q-61 168 -61 280t58 185q58 74 166 74h39v-70h-31q-55 0 -86 -53q-31 -52 -31 -136t54 -236t55 -196q0 -113 -113 -147q113 -33 113 -148q0 -47 -54 -197
t-55 -234q0 -83 31 -136t86 -53h31v-70z" />
    <glyph glyph-name="bar" unicode="|" horiz-adv-x="186" 
d="M139 -131h-92v1624h92v-1624z" />
    <glyph glyph-name="braceright" unicode="}" horiz-adv-x="421" 
d="M344 594h-63q-82 0 -82 -68q0 -22 60 -190t60 -280t-58 -186t-165 -73h-39v70h31q55 0 86 53t31 136t-54 234t-55 197q0 115 113 148q-113 35 -113 147q0 45 55 197q54 153 54 235t-31 136t-86 53h-31v70h39q106 0 164 -74t59 -186q0 -111 -60 -279t-60 -191
q0 -68 82 -67h63v-82z" />
    <glyph glyph-name="asciitilde" unicode="~" horiz-adv-x="327" 
d="M315 719q0 -150 -88 -150q-27 0 -69 44t-56 44q-23 0 -22 -32v-54h-55q-12 33 -13 72q0 147 88 148q27 0 70 -43t55 -43q25 0 25 32v54h53q12 -33 12 -72z" />
    <glyph glyph-name="nbspace" unicode="&#xa0;" horiz-adv-x="94" 
 />
    <glyph glyph-name="exclamdown" unicode="&#xa1;" horiz-adv-x="231" 
d="M184 -358h-137v591l47 449h43l47 -449v-591zM172 797h-115v209h115v-209z" />
    <glyph glyph-name="cent" unicode="&#xa2;" horiz-adv-x="389" 
d="M143 1364h107v-172q98 -39 98 -207v-170h-106v189q0 47 -33 47q-13 1 -23 -13t-10 -34v-646q0 -20 10 -33t23 -14q33 0 33 47v189h106v-170q0 -166 -98 -205v-172h-107v176q-98 53 -98 201v608q0 150 98 203v176z" />
    <glyph glyph-name="sterling" unicode="&#xa3;" horiz-adv-x="561" 
d="M100 166q-37 0 -37 -39t37 -39q48 0 54 49q-23 29 -54 29zM334 1192q-43 0 -43 -99t20 -212t23 -123h133v-146h-113q2 -18 2 -55q0 -170 -82 -350q55 -43 93 -43q47 0 47 63v172h118v-186q0 -102 -38 -166q-39 -63 -119 -63q-43 0 -89 26t-65 56q-43 -82 -105 -82
t-101 39q-38 39 -38 99t39 103q40 43 90 43t80 -16q31 82 31 256q0 23 -10 104h-129v146h94q-2 12 -22 104t-21 220q0 128 53 213q52 85 142 85t137 -72t47 -178v-163h-135v163q0 61 -39 62z" />
    <glyph glyph-name="currency" unicode="&#xa4;" horiz-adv-x="436" 
d="M174 752h170v-140h-170v-401q0 -55 48 -55t48 55v219h131v-213q0 -105 -47 -169t-133 -64t-137 64t-51 169v930q0 104 51 169q51 64 137 64t133 -63t47 -170v-213h-131v219q0 55 -48 55t-48 -55v-401z" />
    <glyph glyph-name="yen" unicode="&#xa5;" horiz-adv-x="446" 
d="M291 567v-102h112v-141h-112v-324h-152v324h-110v141h110v102h-110v142h88l-107 655h148l67 -539l64 539h147l-121 -655h88v-142h-112z" />
    <glyph glyph-name="section" unicode="&#xa7;" horiz-adv-x="491" 
d="M328 489q0 123 -90 232q-68 -73 -68 -195t90 -231q68 71 68 194zM473 516q0 -205 -131 -323q52 -80 70 -114q48 -88 48 -197q1 -109 -51 -182q-51 -73 -157 -73t-168 67q-61 67 -61 189v84h145v-106q0 -80 73 -80t73 96t-103 220q-43 51 -86 109q-104 139 -102 300
q0 199 133 319q-45 66 -66 100q-55 94 -55 203t55 181q56 71 158 71t158 -71q55 -72 55 -181v-94h-144v109q0 76 -61 76q-66 -1 -66 -71q0 -119 142 -279q53 -59 97 -155t44 -198z" />
    <glyph glyph-name="dieresis" unicode="&#xa8;" horiz-adv-x="280" 
d="M111 1116h-91v184h91v-184zM260 1116h-92v184h92v-184z" />
    <glyph glyph-name="copyright" unicode="&#xa9;" horiz-adv-x="970" 
d="M637 518q0 -55 -42 -93t-108 -38q-65 0 -109 38t-44 93v213q0 57 44 94t110 37t107 -37q42 -37 42 -94v-31h-70v31q0 29 -20 49q-19 20 -57 20t-57 -20t-19 -49v-213q0 -29 19 -48t56 -19t58 19q20 19 20 48v33h70v-33zM870 625q0 167 -108 283t-277 116t-277 -116
t-108 -284t109 -282q109 -115 277 -115t276 115t108 283zM29 625q0 195 131 331q132 136 326 136t325 -136t131 -330t-131 -330t-326 -136t-325 135t-131 330z" />
    <glyph glyph-name="ordfeminine" unicode="&#xaa;" horiz-adv-x="405" 
d="M227 782v203q-59 -41 -59 -111v-90q0 -41 30 -41t29 39zM385 627h-35q-59 0 -88 65q-29 -66 -92 -66t-97 45q-34 44 -34 122v61q0 84 47 141t141 111v119q-1 35 -25 35t-24 -35v-82h-123v65q0 76 42 124t112 48q71 0 107 -48t36 -128v-438q0 -33 33 -35v-104z" />
    <glyph glyph-name="guillemotleft" unicode="&#xab;" horiz-adv-x="538" 
d="M254 0h-53q-16 133 -53 213q-36 80 -109 131v105q74 51 109 131q36 80 53 213h53q0 -162 -20 -252t-74 -146q54 -55 74 -145t20 -250zM489 0h-53q-16 133 -52 213t-110 131v105q74 51 110 131t52 213h53q0 -162 -19 -252t-75 -146q55 -55 75 -145t19 -250z" />
    <glyph glyph-name="logicalnot" unicode="&#xac;" horiz-adv-x="512" 
d="M442 584l-88 -88l-100 98l-98 -98l-86 86l98 98l-98 100l88 86l98 -100l98 100l88 -86l-102 -98z" />
    <glyph glyph-name="registered" unicode="&#xae;" horiz-adv-x="970" 
d="M555 709v32q0 51 -49 52h-80v-144h74q55 1 55 60zM659 397h-20q-45 -1 -62 15t-18 55v68q0 61 -55 61h-78v-195h-80v453h166q123 0 123 -115v-26q0 -76 -70 -90q72 -8 72 -88v-62q0 -18 22 -18v-58zM870 625q0 167 -108 283t-277 116t-277 -116t-108 -284t109 -282
q109 -115 277 -115t276 115t108 283zM29 625q0 195 131 331q132 136 326 136t325 -136t131 -330t-131 -330t-326 -136t-325 135t-131 330z" />
    <glyph glyph-name="macron" unicode="&#xaf;" horiz-adv-x="286" 
d="M266 1161h-246v115h246v-115z" />
    <glyph glyph-name="degree" unicode="&#xb0;" horiz-adv-x="337" 
d="M242 1231q0 82 -74 82q-33 0 -52 -23q-20 -24 -20 -60t20 -59t53 -23t53 24q20 22 20 59zM169 1380q65 0 107 -44t41 -104q0 -60 -43 -106t-106 -45q-63 0 -106 45q-42 46 -42 106t42 104t107 44z" />
    <glyph glyph-name="plusminus" unicode="&#xb1;" horiz-adv-x="1087" 
d="M934 100v830h-780v-830h780zM1038 0h-989v1030h989v-1030z" />
    <glyph glyph-name="acute" unicode="&#xb4;" horiz-adv-x="200" 
d="M207 1364l-103 -268h-73l63 268h113z" />
    <glyph glyph-name="paragraph" unicode="&#xb6;" horiz-adv-x="727" 
d="M283 686q0 -162 84 -162h26v682h-26q-39 0 -62 -66t-22 -145v-309zM670 -354h-92v1560h-93v-1560h-92v745h-55q-127 0 -212 130t-85 339v33q0 211 84 341t213 130h332v-1718z" />
    <glyph glyph-name="periodcentered" unicode="&#xb7;" horiz-adv-x="196" 
d="M162 573h-127v215h127v-215z" />
    <glyph glyph-name="cedilla" unicode="&#xb8;" horiz-adv-x="202" 
d="M213 -210q0 -48 -29 -81t-59 -33t-49 13v32h16q37 0 37 43v50q0 43 -37 43q-18 0 -37 -23l-35 31l97 164l35 -31l-64 -109q10 11 44 11t58 -31t23 -79z" />
    <glyph glyph-name="ordmasculine" unicode="&#xba;" horiz-adv-x="399" 
d="M229 782v441q-1 37 -29 37t-28 -37v-441q0 -35 29 -34q28 -1 28 34zM360 807q0 -82 -45 -131t-115 -49t-115 49q-46 49 -46 131v393q0 80 46 130t116 50q71 0 115 -50t44 -130v-393z" />
    <glyph glyph-name="guillemotright" unicode="&#xbb;" horiz-adv-x="538" 
d="M49 0q0 160 20 250q19 90 74 145q-55 55 -74 145t-20 253h53q16 -133 52 -213t110 -131v-105q-74 -51 -110 -131t-52 -213h-53zM285 0q0 160 19 250t75 145q-55 55 -75 145t-19 253h53q16 -133 52 -213t110 -131v-105q-74 -51 -110 -131t-52 -213h-53z" />
    <glyph glyph-name="questiondown" unicode="&#xbf;" horiz-adv-x="405" 
d="M6 -100q0 205 105 460q55 143 55 299h98q0 -166 -74 -469q-61 -272 -31 -361q9 -28 34 -28q43 0 43 66v178h133v-195q0 -98 -46 -161t-133 -64q-184 1 -184 275zM158 1006h114v-209h-114v209z" />
    <glyph glyph-name="Agrave" unicode="&#xc0;" horiz-adv-x="428" 
d="M244 1423h-74l-104 269h114zM240 422l-29 602l-41 -602h70zM424 0h-164l-10 248h-94l-17 -248h-141l123 1364h178z" />
    <glyph glyph-name="Aacute" unicode="&#xc1;" horiz-adv-x="428" 
d="M350 1692l-102 -269h-74l64 269h112zM240 422l-29 602l-41 -602h70zM424 0h-164l-10 248h-94l-17 -248h-141l123 1364h178z" />
    <glyph glyph-name="Acircumflex" unicode="&#xc2;" horiz-adv-x="428" 
d="M51 1485q35 0 75 55t56 152h68q16 -96 56 -152t75 -55v-47q-29 -16 -57 -17q-92 0 -111 144q-23 -143 -111 -144q-23 0 -51 17v47zM240 422l-29 602l-41 -602h70zM424 0h-164l-10 248h-94l-17 -248h-141l123 1364h178z" />
    <glyph glyph-name="Atilde" unicode="&#xc3;" horiz-adv-x="428" 
d="M373 1587q0 -150 -88 -149q-27 0 -70 44t-55 44q-23 0 -23 -33v-53h-55q-12 33 -12 71q0 147 88 148q28 0 70 -43t55 -43q25 0 24 33v53h53q13 -33 13 -72zM240 422l-29 602l-41 -602h70zM424 0h-164l-10 248h-94l-17 -248h-141l123 1364h178z" />
    <glyph glyph-name="Adieresis" unicode="&#xc4;" horiz-adv-x="428" 
d="M184 1444h-90v184h90v-184zM334 1444h-92v184h92v-184zM240 422l-29 602l-41 -602h70zM424 0h-164l-10 248h-94l-17 -248h-141l123 1364h178z" />
    <glyph glyph-name="Aring" unicode="&#xc5;" horiz-adv-x="428" 
d="M240 422l-29 602l-41 -602h70zM252 1436q0 70 -43 69q-43 1 -43 -69t43 -70t43 70zM123 1439q0 44 24 78q25 33 62 33t63 -34t25 -77q0 -44 -18 -75h20l125 -1364h-164l-10 248h-94l-17 -248h-141l123 1364h20q-18 31 -18 75z" />
    <glyph glyph-name="AE" unicode="&#xc6;" horiz-adv-x="620" 
d="M270 422v602l-69 -602h69zM602 0h-332v248h-92l-26 -248h-154l188 1364h416v-164h-172v-416h115v-163h-115v-457h172v-164z" />
    <glyph glyph-name="Ccedilla" unicode="&#xc7;" horiz-adv-x="444" 
d="M33 217v930q0 100 61 167q60 66 146 66t134 -63t48 -170v-260h-133v266q0 55 -47 55t-47 -55v-942q0 -55 47 -55t47 55v268h133v-262q0 -103 -46 -167t-130 -66l-56 -95q10 11 44 11t58 -31t24 -79t-30 -81q-28 -33 -58 -33t-50 13v32h17q37 0 36 43v50q0 43 -36 43
q-18 0 -37 -23l-35 31l72 123q-70 18 -116 80t-46 149z" />
    <glyph glyph-name="Egrave" unicode="&#xc8;" horiz-adv-x="395" 
d="M248 1423h-74l-104 269h114zM377 0h-330v1364h330v-164h-172v-416h117v-163h-117v-457h172v-164z" />
    <glyph glyph-name="Eacute" unicode="&#xc9;" horiz-adv-x="395" 
d="M344 1692l-102 -269h-74l63 269h113zM377 0h-330v1364h330v-164h-172v-416h117v-163h-117v-457h172v-164z" />
    <glyph glyph-name="Ecircumflex" unicode="&#xca;" horiz-adv-x="395" 
d="M47 1485q35 0 75 55t56 152h68q16 -96 56 -152t75 -55v-47q-29 -16 -58 -17q-92 0 -110 144q-23 -143 -111 -144q-23 0 -51 17v47zM377 0h-330v1364h330v-164h-172v-416h117v-163h-117v-457h172v-164z" />
    <glyph glyph-name="Edieresis" unicode="&#xcb;" horiz-adv-x="395" 
d="M186 1444h-90v184h90v-184zM336 1444h-92v184h92v-184zM377 0h-330v1364h330v-164h-172v-416h117v-163h-117v-457h172v-164z" />
    <glyph glyph-name="Igrave" unicode="&#xcc;" horiz-adv-x="253" 
d="M166 1423h-74l-104 269h114zM207 0h-160v1364h160v-1364z" />
    <glyph glyph-name="Iacute" unicode="&#xcd;" horiz-adv-x="253" 
d="M268 1692l-102 -269h-74l64 269h112zM207 0h-160v1364h160v-1364z" />
    <glyph glyph-name="Icircumflex" unicode="&#xce;" horiz-adv-x="253" 
d="M-29 1485q35 0 75 55t56 152h68q16 -96 56 -152t75 -55v-47q-29 -16 -57 -17q-92 0 -111 144q-23 -143 -110 -144q-23 0 -52 17v47zM207 0h-160v1364h160v-1364z" />
    <glyph glyph-name="Idieresis" unicode="&#xcf;" horiz-adv-x="253" 
d="M98 1444h-90v184h90v-184zM248 1444h-92v184h92v-184zM207 0h-160v1364h160v-1364z" />
    <glyph glyph-name="Eth" unicode="&#xd0;" horiz-adv-x="483" 
d="M207 752h41v-140h-41v-450h41q39 0 39 55v928q0 55 -39 55h-41v-448zM47 612h-53v140h53v612h219q74 0 127 -48t53 -167v-934q0 -119 -53 -167t-127 -48h-219v612z" />
    <glyph glyph-name="Ntilde" unicode="&#xd1;" horiz-adv-x="516" 
d="M416 1587q0 -150 -88 -149q-27 0 -70 44t-55 44q-23 0 -23 -33v-53h-55q-12 33 -12 71q0 147 88 148q27 0 69 -43t56 -43q25 0 24 33v53h53q13 -33 13 -72zM473 0h-133l-133 674l-31 184v-858h-133v1364h164l110 -664l25 -188v852h131v-1364z" />
    <glyph glyph-name="Ograve" unicode="&#xd2;" 
d="M274 1423h-73l-105 269h115zM281 205v954q0 49 -41 49t-41 -49v-954q0 -49 41 -49t41 49zM442 217q0 -102 -58 -168q-58 -65 -143 -65t-145 65q-59 66 -59 168v930q0 100 59 167q58 66 144 66t144 -66t58 -167v-930z" />
    <glyph glyph-name="Oacute" unicode="&#xd3;" 
d="M375 1692l-103 -269h-73l63 269h113zM281 205v954q0 49 -41 49t-41 -49v-954q0 -49 41 -49t41 49zM442 217q0 -102 -58 -168q-58 -65 -143 -65t-145 65q-59 66 -59 168v930q0 100 59 167q58 66 144 66t144 -66t58 -167v-930z" />
    <glyph glyph-name="Ocircumflex" unicode="&#xd4;" 
d="M78 1485q35 0 75 55t56 152h67q16 -96 56 -152t76 -55v-47q-29 -16 -58 -17q-92 0 -110 144q-23 -143 -111 -144q-23 0 -51 17v47zM281 205v954q0 49 -41 49t-41 -49v-954q0 -49 41 -49t41 49zM442 217q0 -102 -58 -168q-58 -65 -143 -65t-145 65q-59 66 -59 168v930
q0 100 59 167q58 66 144 66t144 -66t58 -167v-930z" />
    <glyph glyph-name="Otilde" unicode="&#xd5;" 
d="M391 1587q0 -150 -88 -149q-27 0 -70 44t-55 44q-23 0 -22 -33v-53h-56q-12 33 -12 71q0 147 88 148q27 0 70 -43t55 -43q25 0 25 33v53h53q12 -33 12 -72zM281 205v954q0 49 -41 49t-41 -49v-954q0 -49 41 -49t41 49zM442 217q0 -102 -58 -168q-58 -65 -143 -65t-145 65
q-59 66 -59 168v930q0 100 59 167q58 66 144 66t144 -66t58 -167v-930z" />
    <glyph glyph-name="Odieresis" unicode="&#xd6;" 
d="M211 1444h-90v184h90v-184zM360 1444h-92v184h92v-184zM281 205v954q0 49 -41 49t-41 -49v-954q0 -49 41 -49t41 49zM442 217q0 -102 -58 -168q-58 -65 -143 -65t-145 65q-59 66 -59 168v930q0 100 59 167q58 66 144 66t144 -66t58 -167v-930z" />
    <glyph glyph-name="multiply" unicode="&#xd7;" horiz-adv-x="512" 
d="M442 584l-88 -88l-100 98l-98 -98l-86 86l98 98l-98 100l88 86l98 -100l98 100l88 -86l-102 -98z" />
    <glyph glyph-name="Oslash" unicode="&#xd8;" 
d="M197 205q0 -49 42 -49t42 49v457l-84 -308v-149zM281 1159q0 49 -42 49t-42 -49v-457l84 308v149zM37 217v930q0 102 58 168q59 65 137 65t137 -49l20 78l88 -25l-45 -163q10 -37 10 -74v-930q0 -102 -59 -168q-59 -65 -138 -65t-134 51l-23 -80l-88 25l45 165
q-8 31 -8 72z" />
    <glyph glyph-name="Ugrave" unicode="&#xd9;" horiz-adv-x="479" 
d="M281 1423h-74l-105 269h115zM436 217q0 -102 -55 -168q-55 -65 -139 -65t-142 65q-57 66 -57 168v1147h158v-1159q0 -49 42 -49t42 49v1159h151v-1147z" />
    <glyph glyph-name="Uacute" unicode="&#xda;" horiz-adv-x="479" 
d="M383 1692l-102 -269h-74l63 269h113zM436 217q0 -102 -55 -168q-55 -65 -139 -65t-142 65q-57 66 -57 168v1147h158v-1159q0 -49 42 -49t42 49v1159h151v-1147z" />
    <glyph glyph-name="Ucircumflex" unicode="&#xdb;" horiz-adv-x="479" 
d="M82 1485q35 0 75 55t56 152h68q16 -96 56 -152t75 -55v-47q-29 -16 -58 -17q-92 0 -110 144q-23 -143 -111 -144q-23 0 -51 17v47zM436 217q0 -102 -55 -168q-55 -65 -139 -65t-142 65q-57 66 -57 168v1147h158v-1159q0 -49 42 -49t42 49v1159h151v-1147z" />
    <glyph glyph-name="Udieresis" unicode="&#xdc;" horiz-adv-x="479" 
d="M213 1444h-90v184h90v-184zM362 1444h-92v184h92v-184zM436 217q0 -102 -55 -168q-55 -65 -139 -65t-142 65q-57 66 -57 168v1147h158v-1159q0 -49 42 -49t42 49v1159h151v-1147z" />
    <glyph glyph-name="Yacute" unicode="&#xdd;" horiz-adv-x="430" 
d="M360 1692l-102 -269h-74l64 269h112zM287 0h-158v535l-135 829h153l72 -565l66 565h153l-151 -829v-535z" />
    <glyph glyph-name="Thorn" unicode="&#xde;" horiz-adv-x="460" 
d="M279 516v391q0 55 -29 56h-41v-502h41q29 0 29 55zM434 524q0 -119 -53 -167t-127 -48h-45v-309h-162v1364h162v-240h45q74 0 127 -47t53 -166v-387z" />
    <glyph glyph-name="germandbls" unicode="&#xdf;" horiz-adv-x="419" 
d="M381 193q0 -97 -36 -153t-93 -56q-27 0 -41 18v84q39 0 39 70v417q0 80 -37 80v152q41 0 41 80v248q0 80 -37 79q-43 0 -43 -79v-1133h-131v1100q0 120 45 192t124 72t123 -71t44 -193v-205q0 -119 -64 -176q66 -55 66 -176v-350z" />
    <glyph glyph-name="agrave" unicode="&#xe0;" horiz-adv-x="366" 
d="M225 1096h-73l-105 268h115zM205 182v303q-57 -72 -58 -155v-148q0 -49 29 -49t29 49zM352 -16h-33q-47 0 -75 71q-23 -71 -88 -71t-100 57q-34 57 -33 158v108q0 111 47 189t135 161v172q0 43 -24 43t-23 -43v-122h-121v100q0 97 43 157t107 60q65 0 101 -59t36 -158
v-647q0 -41 28 -49v-127z" />
    <glyph glyph-name="aacute" unicode="&#xe1;" horiz-adv-x="366" 
d="M328 1364l-103 -268h-73l63 268h113zM205 182v303q-57 -72 -58 -155v-148q0 -49 29 -49t29 49zM352 -16h-33q-47 0 -75 71q-23 -71 -88 -71t-100 57q-34 57 -33 158v108q0 111 47 189t135 161v172q0 43 -24 43t-23 -43v-122h-121v100q0 97 43 157t107 60q65 0 101 -59
t36 -158v-647q0 -41 28 -49v-127z" />
    <glyph glyph-name="acircumflex" unicode="&#xe2;" horiz-adv-x="366" 
d="M299 1094q-92 0 -111 143q-23 -143 -110 -143q-23 0 -51 16v47q35 0 75 55t56 152h67q17 -96 57 -152t74 -55v-47q-29 -16 -57 -16zM205 182v303q-57 -72 -58 -155v-148q0 -49 29 -49t29 49zM352 -16h-33q-47 0 -75 71q-23 -71 -88 -71t-100 57q-34 57 -33 158v108
q0 111 47 189t135 161v172q0 43 -24 43t-23 -43v-122h-121v100q0 97 43 157t107 60q65 0 101 -59t36 -158v-647q0 -41 28 -49v-127z" />
    <glyph glyph-name="atilde" unicode="&#xe3;" horiz-adv-x="366" 
d="M338 1260q0 -150 -88 -150q-27 0 -70 44t-55 44q-23 0 -23 -33v-53h-55q-12 33 -12 72q0 147 88 147q27 0 70 -43t55 -43q25 0 24 33v53h54q12 -32 12 -71zM205 182v303q-57 -72 -58 -155v-148q0 -49 29 -49t29 49zM352 -16h-33q-47 0 -75 71q-23 -71 -88 -71t-100 57
q-34 57 -33 158v108q0 111 47 189t135 161v172q0 43 -24 43t-23 -43v-122h-121v100q0 97 43 157t107 60q65 0 101 -59t36 -158v-647q0 -41 28 -49v-127z" />
    <glyph glyph-name="adieresis" unicode="&#xe4;" horiz-adv-x="366" 
d="M160 1116h-90v184h90v-184zM309 1116h-92v184h92v-184zM205 182v303q-57 -72 -58 -155v-148q0 -49 29 -49t29 49zM352 -16h-33q-47 0 -75 71q-23 -71 -88 -71t-100 57q-34 57 -33 158v108q0 111 47 189t135 161v172q0 43 -24 43t-23 -43v-122h-121v100q0 97 43 157
t107 60q65 0 101 -59t36 -158v-647q0 -41 28 -49v-127z" />
    <glyph glyph-name="aring" unicode="&#xe5;" horiz-adv-x="366" 
d="M227 1225q0 70 -43 69q-43 0 -43 -70t43 -69q43 0 43 70zM272 1225q0 -47 -26 -82t-62 -35q-38 0 -62 35t-24 82t25 81t61 34t63 -34q25 -34 25 -81zM205 182v303q-57 -72 -58 -155v-148q0 -49 29 -49t29 49zM352 -16h-33q-47 0 -75 71q-23 -71 -88 -71t-100 57
q-34 57 -33 158v108q0 111 47 189t135 161v172q0 43 -24 43t-23 -43v-122h-121v100q0 97 43 157t107 60q65 0 101 -59t36 -158v-647q0 -41 28 -49v-127z" />
    <glyph glyph-name="ae" unicode="&#xe6;" horiz-adv-x="532" 
d="M205 182v303q-57 -72 -58 -155v-148q0 -49 29 -49t29 49zM387 592v233q0 47 -32 47t-31 -47v-233h63zM500 199q0 -95 -42 -155t-104 -60t-96 49q-37 -49 -100 -49q-135 0 -135 215v108q0 111 47 189t135 161v172q0 43 -27 43t-26 -43v-122h-121v100q0 93 44 155t94 62
t89 -51q38 51 98 51t102 -60t42 -157v-342h-176v-285q0 -47 32 -47t31 47v189h113v-170z" />
    <glyph glyph-name="ccedilla" unicode="&#xe7;" horiz-adv-x="368" 
d="M166 180q0 -47 33 -47t32 47v189h109v-170q0 -89 -34 -147t-91 -66l-55 -97q10 11 44 11t58 -31t23 -79q0 -48 -29 -81q-30 -33 -60 -33t-49 13v32h17q37 0 37 43v50q0 43 -37 43q-18 0 -37 -23l-35 31l72 123q-55 12 -91 70t-36 141v610q0 95 46 155t112 60
q65 0 105 -59t40 -156v-172h-109v188q0 47 -30 47q-15 0 -25 -12t-10 -35v-645z" />
    <glyph glyph-name="egrave" unicode="&#xe8;" horiz-adv-x="376" 
d="M233 1096h-73l-105 268h115zM231 592v233q1 47 -31 47t-32 -47v-233h63zM344 199q0 -95 -42 -155t-108 -60t-111 60q-46 60 -46 155v608q0 93 46 155t112 62q65 0 107 -60t42 -157v-342h-176v-285q0 -47 32 -47t31 47v189h113v-170z" />
    <glyph glyph-name="eacute" unicode="&#xe9;" horiz-adv-x="376" 
d="M330 1364l-103 -268h-73l63 268h113zM231 592v233q1 47 -31 47t-32 -47v-233h63zM344 199q0 -95 -42 -155t-108 -60t-111 60q-46 60 -46 155v608q0 93 46 155t112 62q65 0 107 -60t42 -157v-342h-176v-285q0 -47 32 -47t31 47v189h113v-170z" />
    <glyph glyph-name="ecircumflex" unicode="&#xea;" horiz-adv-x="376" 
d="M303 1094q-92 0 -110 143q-23 -143 -111 -143q-23 0 -51 16v47q35 0 75 55t56 152h67q17 -96 57 -152t74 -55v-47q-29 -16 -57 -16zM231 592v233q1 47 -31 47t-32 -47v-233h63zM344 199q0 -95 -42 -155t-108 -60t-111 60q-46 60 -46 155v608q0 93 46 155t112 62
q65 0 107 -60t42 -157v-342h-176v-285q0 -47 32 -47t31 47v189h113v-170z" />
    <glyph glyph-name="edieresis" unicode="&#xeb;" horiz-adv-x="376" 
d="M164 1116h-90v184h90v-184zM313 1116h-92v184h92v-184zM231 592v233q1 47 -31 47t-32 -47v-233h63zM344 199q0 -95 -42 -155t-108 -60t-111 60q-46 60 -46 155v608q0 93 46 155t112 62q65 0 107 -60t42 -157v-342h-176v-285q0 -47 32 -47t31 47v189h113v-170z" />
    <glyph glyph-name="igrave" unicode="&#xec;" horiz-adv-x="217" 
d="M145 1096h-73l-105 268h115zM174 0h-131v1006h131v-1006z" />
    <glyph glyph-name="iacute" unicode="&#xed;" horiz-adv-x="217" 
d="M248 1364l-103 -268h-73l63 268h113zM174 0h-131v1006h131v-1006z" />
    <glyph glyph-name="icircumflex" unicode="&#xee;" horiz-adv-x="217" 
d="M217 1094q-92 0 -111 143q-23 -143 -110 -143q-23 0 -51 16v47q35 0 75 55t56 152h67q17 -96 57 -152t74 -55v-47q-29 -16 -57 -16zM174 0h-131v1006h131v-1006z" />
    <glyph glyph-name="idieresis" unicode="&#xef;" horiz-adv-x="217" 
d="M76 1116h-90v184h90v-184zM225 1116h-92v184h92v-184zM174 0h-131v1006h131v-1006z" />
    <glyph glyph-name="eth" unicode="&#xf0;" horiz-adv-x="393" 
d="M170 174q0 -41 28 -41t27 41v657q1 41 -27 41t-28 -41v-657zM356 199q0 -95 -46 -155t-114 -60t-113 60q-46 60 -46 155v649q0 63 31 108q32 45 76 45t81 -57q0 113 -14 184l-76 -45l-31 80l84 49q-27 74 -86 146v6h140q35 -45 53 -88l53 31l31 -80l-55 -33
q33 -113 32 -315v-680z" />
    <glyph glyph-name="ntilde" unicode="&#xf1;" horiz-adv-x="401" 
d="M354 1260q0 -150 -88 -150q-28 0 -70 44t-55 44q-23 0 -22 -33v-53h-56q-12 33 -12 72q0 147 88 147q27 0 70 -43t55 -43q25 0 25 33v53h53q12 -32 12 -71zM360 0h-131v831q1 41 -27 41t-28 -41v-831h-131v1006h125l6 -45q31 63 78 63t78 -45t30 -109v-870z" />
    <glyph glyph-name="ograve" unicode="&#xf2;" horiz-adv-x="391" 
d="M231 1096h-73l-105 268h115zM223 174v657q1 41 -27 41t-28 -41v-657q0 -41 28 -41t27 41zM354 199q0 -95 -46 -155t-112 -60t-113 60q-46 60 -46 155v608q0 93 46 155t113 62q66 0 112 -61t46 -156v-608z" />
    <glyph glyph-name="oacute" unicode="&#xf3;" horiz-adv-x="391" 
d="M336 1364l-103 -268h-73l63 268h113zM223 174v657q1 41 -27 41t-28 -41v-657q0 -41 28 -41t27 41zM354 199q0 -95 -46 -155t-112 -60t-113 60q-46 60 -46 155v608q0 93 46 155t113 62q66 0 112 -61t46 -156v-608z" />
    <glyph glyph-name="ocircumflex" unicode="&#xf4;" horiz-adv-x="391" 
d="M307 1094q-92 0 -110 143q-23 -143 -111 -143q-23 0 -51 16v47q35 0 75 55t56 152h67q17 -96 57 -152t75 -55v-47q-29 -16 -58 -16zM223 174v657q1 41 -27 41t-28 -41v-657q0 -41 28 -41t27 41zM354 199q0 -95 -46 -155t-112 -60t-113 60q-46 60 -46 155v608q0 93 46 155
t113 62q66 0 112 -61t46 -156v-608z" />
    <glyph glyph-name="otilde" unicode="&#xf5;" horiz-adv-x="391" 
d="M348 1260q0 -150 -88 -150q-27 0 -70 44t-55 44q-23 0 -22 -33v-53h-56q-12 33 -12 72q0 147 88 147q27 0 70 -43t55 -43q25 0 25 33v53h53q12 -32 12 -71zM223 174v657q1 41 -27 41t-28 -41v-657q0 -41 28 -41t27 41zM354 199q0 -95 -46 -155t-112 -60t-113 60
q-46 60 -46 155v608q0 93 46 155t113 62q66 0 112 -61t46 -156v-608z" />
    <glyph glyph-name="odieresis" unicode="&#xf6;" horiz-adv-x="391" 
d="M166 1116h-90v184h90v-184zM315 1116h-92v184h92v-184zM223 174v657q1 41 -27 41t-28 -41v-657q0 -41 28 -41t27 41zM354 199q0 -95 -46 -155t-112 -60t-113 60q-46 60 -46 155v608q0 93 46 155t113 62q66 0 112 -61t46 -156v-608z" />
    <glyph glyph-name="oslash" unicode="&#xf8;" horiz-adv-x="391" 
d="M168 174q0 -41 28 -41t27 41v309l-55 -135v-174zM223 831q1 41 -27 41t-28 -41v-311l55 135v176zM37 807q0 93 46 155t114 62q92 0 135 -102l41 98l53 -43l-72 -174v-604q0 -95 -46 -155t-111 -60q-92 0 -138 100l-39 -96l-53 43l70 170v606z" />
    <glyph glyph-name="ugrave" unicode="&#xf9;" horiz-adv-x="399" 
d="M233 1096h-73l-105 268h115zM356 0h-123l-6 45q-29 -61 -77 -61t-78 44t-31 107v871h129v-832q0 -16 9 -28t22 -13q27 0 26 41v832h129v-1006z" />
    <glyph glyph-name="uacute" unicode="&#xfa;" horiz-adv-x="399" 
d="M336 1364l-103 -268h-73l63 268h113zM356 0h-123l-6 45q-29 -61 -77 -61t-78 44t-31 107v871h129v-832q0 -16 9 -28t22 -13q27 0 26 41v832h129v-1006z" />
    <glyph glyph-name="ucircumflex" unicode="&#xfb;" horiz-adv-x="399" 
d="M309 1094q-92 0 -110 143q-23 -143 -111 -143q-23 0 -51 16v47q35 0 75 55t56 152h68q16 -96 56 -152t75 -55v-47q-29 -16 -58 -16zM356 0h-123l-6 45q-29 -61 -77 -61t-78 44t-31 107v871h129v-832q0 -16 9 -28t22 -13q27 0 26 41v832h129v-1006z" />
    <glyph glyph-name="udieresis" unicode="&#xfc;" horiz-adv-x="399" 
d="M170 1116h-90v184h90v-184zM319 1116h-92v184h92v-184zM356 0h-123l-6 45q-29 -61 -77 -61t-78 44t-31 107v871h129v-832q0 -16 9 -28t22 -13q27 0 26 41v832h129v-1006z" />
    <glyph glyph-name="yacute" unicode="&#xfd;" horiz-adv-x="344" 
d="M319 1364l-102 -268h-74l64 268h112zM39 -360h-10v141h22q41 0 49 78l15 161l-105 986h131l25 -424l10 -197l35 621h121l-117 -1119q-16 -151 -48 -199t-128 -48z" />
    <glyph glyph-name="thorn" unicode="&#xfe;" horiz-adv-x="397" 
d="M229 174v657q1 41 -27 41t-28 -41v-657q0 -41 28 -41t27 41zM360 135q0 -65 -30 -109t-76 -44q-47 0 -80 55v-391h-131v1718h131v-395q33 55 80 55t77 -44t29 -110v-735z" />
    <glyph glyph-name="ydieresis" unicode="&#xff;" horiz-adv-x="344" 
d="M147 1116h-90v184h90v-184zM297 1116h-92v184h92v-184zM39 -360h-10v141h22q41 0 49 78l15 161l-105 986h131l25 -424l10 -197l35 621h121l-117 -1119q-16 -151 -48 -199t-128 -48z" />
    <glyph glyph-name="dotlessi" unicode="&#x131;" horiz-adv-x="217" 
d="M174 0h-131v1006h131v-1006z" />
    <glyph glyph-name="Lslash" unicode="&#x141;" horiz-adv-x="413" 
d="M246 158h162v-158h-320v442l-57 -114l-56 32l113 226v778h158v-463l67 135l56 -35l-123 -245v-598z" />
    <glyph glyph-name="lslash" unicode="&#x142;" horiz-adv-x="278" 
d="M205 0h-131v432l-51 -127l-54 41l105 258v760h131v-436l53 131l53 -43l-106 -262v-754z" />
    <glyph glyph-name="OE" unicode="&#x152;" horiz-adv-x="624" 
d="M274 162v1038h-41q-37 0 -36 -55v-928q0 -55 36 -55h41zM606 0h-389q-74 0 -127 48t-53 167v934q0 119 53 167t127 48h389v-164h-172v-416h115v-163h-115v-457h172v-164z" />
    <glyph glyph-name="oe" unicode="&#x153;" horiz-adv-x="565" 
d="M223 174v657q1 41 -27 41t-28 -41v-657q0 -41 28 -41t27 41zM422 592v233q0 47 -33 47t-33 -47v-233h66zM532 199q0 -95 -42 -155t-103 -60t-96 49q-37 -49 -99 -49t-109 60q-46 60 -46 155v608q0 93 46 155q45 62 107 62t101 -51q37 51 97 51t102 -60t42 -157v-342h-176
v-285q0 -47 33 -47t33 47v189h110v-170z" />
    <glyph glyph-name="Scaron" unicode="&#x160;" horiz-adv-x="450" 
d="M395 1628q-35 0 -75 -54t-54 -151h-69q-17 97 -57 151t-74 54v49q27 14 57 15q92 0 110 -144q23 143 111 144q29 0 51 -15v-49zM426 260q0 -156 -61 -216t-149 -60t-142 64q-53 64 -54 185v166h138v-190q0 -72 56 -72t56 72q0 176 -100 405q-147 346 -147 482
q0 285 213 284q86 0 135 -63t49 -187v-182h-137v207q0 61 -47 62q-53 0 -54 -62q0 -116 14 -166q14 -51 17 -60q8 -38 28 -77t48 -113q137 -323 137 -479z" />
    <glyph glyph-name="scaron" unicode="&#x161;" horiz-adv-x="358" 
d="M344 1300q-35 0 -75 -54t-54 -150h-70q-16 96 -56 150t-75 54v50q27 14 58 14q92 0 110 -143q23 143 111 143q29 0 51 -14v-50zM27 209v94h118v-123q0 -49 33 -49q39 1 39 67t-13 111t-44 105t-47 95q-16 34 -45 98q-41 88 -41 188q0 101 41 165q42 64 114 64t113 -62
t41 -157v-115h-115v129q0 51 -37 51t-37 -48t15 -105t45 -115q29 -59 47 -94l24 -46q28 -55 33 -79q7 -24 17 -57t10 -123q0 -89 -39 -155t-112 -64q-73 0 -117 57t-43 168z" />
    <glyph glyph-name="Ydieresis" unicode="&#x178;" horiz-adv-x="430" 
d="M190 1444h-90v184h90v-184zM340 1444h-92v184h92v-184zM287 0h-158v535l-135 829h153l72 -565l66 565h153l-151 -829v-535z" />
    <glyph glyph-name="Zcaron" unicode="&#x17d;" horiz-adv-x="378" 
d="M358 1628q-34 0 -74 -54t-55 -151h-69q-16 97 -56 151t-75 54v49q27 14 57 15q92 0 111 -144q23 143 110 144q29 0 51 -15v-49zM356 164v-164h-350v72l197 1122h-189v170h353v-72l-199 -1128h188z" />
    <glyph glyph-name="zcaron" unicode="&#x17e;" horiz-adv-x="323" 
d="M330 1300q-35 0 -75 -54t-54 -150h-70q-16 96 -56 150t-75 54v50q27 14 57 14q92 0 111 -143q23 143 111 143q29 0 51 -14v-50zM291 156v-156h-277v47l148 805h-129v154h268v-48l-145 -802h135z" />
    <glyph glyph-name="florin" unicode="&#x192;" horiz-adv-x="354" 
d="M256 791h76v-140h-76v-438q0 -248 -195 -248h-14v119h16q41 0 41 78v489h-73v140h73v325q0 248 197 248h14v-119h-18q-41 0 -41 -78v-376z" />
    <glyph glyph-name="circumflex" unicode="&#x2c6;" horiz-adv-x="346" 
d="M281 1094q-92 0 -111 143q-23 -143 -111 -143q-23 0 -51 16v47q35 0 75 55t56 152h68q16 -96 56 -152t75 -55v-47q-29 -16 -57 -16z" />
    <glyph glyph-name="caron" unicode="&#x2c7;" horiz-adv-x="346" 
d="M338 1300q-35 0 -75 -54t-54 -150h-70q-16 96 -56 150t-75 54v50q27 14 58 14q92 0 110 -143q23 143 111 143q29 0 51 -14v-50z" />
    <glyph glyph-name="breve" unicode="&#x2d8;" horiz-adv-x="294" 
d="M274 1240q0 -54 -36 -94q-36 -42 -90 -42q-56 0 -92 42t-36 97t13 88h57v-28q0 -100 57 -101q59 0 60 101v28h57q10 -37 10 -91z" />
    <glyph glyph-name="dotaccent" unicode="&#x2d9;" horiz-adv-x="266" 
d="M178 1116h-90v184h90v-184z" />
    <glyph glyph-name="ring" unicode="&#x2da;" horiz-adv-x="223" 
d="M154 1225q0 70 -43 69q-43 0 -43 -70t43 -69q43 0 43 70zM199 1225q0 -47 -26 -82q-27 -35 -63 -35t-61 35t-24 82q0 47 24 81q25 34 62 34t63 -34t25 -81z" />
    <glyph glyph-name="ogonek" unicode="&#x2db;" horiz-adv-x="202" 
d="M128 -258q-48 0 -76 32t-27 83q0 115 133 174l14 -21q-70 -57 -70 -132t70 -75h21v-45q-17 -16 -65 -16z" />
    <glyph glyph-name="tilde" unicode="&#x2dc;" horiz-adv-x="327" 
d="M315 1260q0 -150 -88 -150q-27 0 -69 44t-56 44q-23 0 -22 -33v-53h-55q-12 33 -13 72q0 147 88 147q27 0 70 -43t55 -43q25 0 25 33v53h53q12 -32 12 -71z" />
    <glyph glyph-name="hungarumlaut" unicode="&#x2dd;" horiz-adv-x="303" 
d="M147 1364l-63 -268h-64l41 268h86zM281 1364l-74 -268h-66l54 268h86z" />
    <glyph glyph-name="Omega" unicode="&#x3a9;" horiz-adv-x="499" 
d="M492 864h-56v-864h-131v864h-110v-864h-132v864h-49v142h49v110q0 124 40 186t135 62h14v-141h-16q-45 0 -46 -80v-137h115v110q0 124 40 186t134 62h15v-141h-17q-45 0 -45 -80v-137h60v-142z" />
    <glyph glyph-name="pi" unicode="&#x3c0;" horiz-adv-x="970" 
d="M575 692v47q0 57 -51 58h-80v-158h80q51 0 51 53zM655 694q0 -119 -123 -119h-88v-174h-77v453h165q123 0 123 -115v-45zM870 625q0 167 -108 283t-277 116t-277 -116t-108 -284t109 -282q109 -115 277 -115t276 115t108 283zM29 625q0 195 131 331q132 136 326 136
t325 -136t131 -330t-131 -330t-326 -136t-325 135t-131 330z" />
    <glyph glyph-name="endash" unicode="&#x2013;" horiz-adv-x="819" 
d="M692 571h-563v136h563v-136z" />
    <glyph glyph-name="emdash" unicode="&#x2014;" horiz-adv-x="1228" 
d="M1102 571h-973v136h973v-136z" />
    <glyph glyph-name="quoteleft" unicode="&#x2018;" horiz-adv-x="196" 
d="M35 1198q0 70 36 118t91 48v-47q-59 0 -60 -100h60v-218h-127v199z" />
    <glyph glyph-name="quoteright" unicode="&#x2019;" horiz-adv-x="196" 
d="M162 1165q0 -69 -36 -117t-91 -49v48q59 0 59 100h-59v217h127v-199z" />
    <glyph glyph-name="quotesinglbase" unicode="&#x201a;" horiz-adv-x="196" 
d="M162 18q0 -70 -36 -118t-91 -47v47q59 0 59 100h-59v217h127v-199z" />
    <glyph glyph-name="quotedblleft" unicode="&#x201c;" horiz-adv-x="358" 
d="M35 1198q0 70 36 118t91 48v-47q-59 0 -60 -100h60v-218h-127v199zM197 1198q0 70 35 118q36 48 92 48v-47q-59 0 -60 -100h60v-218h-127v199z" />
    <glyph glyph-name="quotedblright" unicode="&#x201d;" horiz-adv-x="358" 
d="M162 1165q0 -69 -36 -117t-91 -49v48q59 0 59 100h-59v217h127v-199zM324 1165q0 -69 -36 -117t-91 -49v48q59 0 59 100h-59v217h127v-199z" />
    <glyph glyph-name="quotedblbase" unicode="&#x201e;" horiz-adv-x="358" 
d="M162 18q0 -70 -36 -118t-91 -47v47q59 0 59 100h-59v217h127v-199zM324 18q0 -70 -36 -118t-91 -47v47q59 0 59 100h-59v217h127v-199z" />
    <glyph glyph-name="dagger" unicode="&#x2020;" horiz-adv-x="454" 
d="M442 913q0 -16 -16 -16q-113 0 -168 16q14 -59 14 -501t-12 -541q0 -18 -14 -18h-37q-14 0 -14 18q-13 99 -13 541t15 501q-55 -16 -168 -16q-16 0 -17 16v52q0 14 17 14q109 0 168 -14q-14 59 -15 381q0 18 15 18h61q14 0 14 -18q0 -322 -14 -381q59 14 168 14
q16 0 16 -14v-52z" />
    <glyph glyph-name="daggerdbl" unicode="&#x2021;" horiz-adv-x="454" 
d="M442 252q0 -16 -16 -16q-111 0 -168 16q14 -59 14 -381q0 -18 -14 -18h-61q-14 0 -15 18q0 322 15 381q-57 -16 -168 -16q-16 0 -17 16v51q0 14 17 14q111 0 168 -14q-14 59 -15 305q0 246 15 305q-55 -16 -168 -16q-16 0 -17 16v52q0 14 17 14q109 0 168 -14
q-14 59 -15 381q0 18 15 18h61q14 0 14 -18q0 -322 -14 -381q59 14 168 14q16 0 16 -14v-52q0 -16 -16 -16q-117 0 -168 16q14 -59 14 -305t-14 -305q55 14 168 14q16 0 16 -14v-51z" />
    <glyph glyph-name="bullet" unicode="&#x2022;" horiz-adv-x="358" 
d="M338 681q0 -75 -44 -118t-115 -43t-115 43t-44 118t46 118t114 43q70 0 114 -43t44 -118z" />
    <glyph glyph-name="ellipsis" unicode="&#x2026;" horiz-adv-x="565" 
d="M162 0h-127v215h127v-215zM346 0h-127v215h127v-215zM530 0h-127v215h127v-215z" />
    <glyph glyph-name="perthousand" unicode="&#x2030;" horiz-adv-x="1095" 
d="M618 123v391q0 20 -12 34t-28 13q-41 0 -41 -47v-391q0 -45 41 -45q16 0 28 12t12 33zM965 123v391q-1 20 -13 34t-28 13q-41 0 -41 -47v-391q0 -45 41 -45q16 0 28 12t13 33zM219 844v391q0 47 -41 47q-16 0 -28 -13t-13 -34v-391q1 -20 13 -34t28 -13q41 0 41 47z
M721 135q0 -72 -40 -115t-103 -43t-105 43q-41 43 -41 115v369q0 72 41 114t105 41q64 0 103 -42q40 -42 40 -113v-369zM1067 135q0 -72 -40 -115t-103 -43t-105 43q-41 43 -41 115v369q0 72 41 114t105 41q64 0 103 -42q40 -42 40 -113v-369zM690 1354l-571 -1389l-53 41
l571 1389zM324 856q0 -72 -41 -115t-105 -43t-103 43q-40 43 -40 115v367q0 73 40 115q41 42 105 42t104 -42t40 -115v-367z" />
    <glyph glyph-name="guilsinglleft" unicode="&#x2039;" horiz-adv-x="303" 
d="M254 0h-53q-16 133 -53 213q-36 80 -109 131v105q74 51 109 131q36 80 53 213h53q0 -162 -20 -252t-74 -146q54 -55 74 -145t20 -250z" />
    <glyph glyph-name="guilsinglright" unicode="&#x203a;" horiz-adv-x="303" 
d="M49 0q0 160 20 250q19 90 74 145q-55 55 -74 145t-20 253h53q16 -133 52 -213t110 -131v-105q-74 -51 -110 -131t-52 -213h-53z" />
    <glyph glyph-name="fraction" unicode="&#x2044;" horiz-adv-x="184" 
d="M631 1462l-1018 -1603l-59 43l1017 1603z" />
    <glyph glyph-name="trademark" unicode="&#x2122;" horiz-adv-x="608" 
d="M225 1315h-73v-246h-60v246h-74v49h207v-49zM565 1069h-55v240l-21 -84l-45 -156h-51l-43 156l-20 84v-240h-56v295h86l60 -242l57 242h88v-295z" />
    <glyph glyph-name="product" unicode="&#x220f;" horiz-adv-x="466" 
d="M207 735h45q29 0 29 56v354q0 55 -29 55h-45v-465zM207 592v-592h-160v1364h209q74 0 127 -48t53 -167v-354q0 -92 -61 -142l82 -653h-154l-70 592h-26z" />
    <glyph glyph-name="radical" unicode="&#x221a;" horiz-adv-x="716" 
d="M492 864h-56v-864h-131v864h-110v-864h-132v864h-49v142h49v110q0 124 40 186t135 62h14v-141h-16q-45 0 -46 -80v-137h115v110q0 124 40 186t134 62h15v-141h-17q-45 0 -45 -80v-137h60v-142zM674 0h-131v1364h131v-1364z" />
    <glyph glyph-name="approxequal" unicode="&#x2248;" horiz-adv-x="716" 
d="M674 0h-131v1006h131v-1006zM492 864h-56v-864h-131v864h-110v-864h-132v864h-49v142h49v110q0 124 40 186t135 62h14v-141h-16q-45 0 -46 -80v-137h115v110q0 124 40 186t134 62h15v-141h-17q-45 0 -45 -80v-137h60v-142zM668 1114h-119v180h119v-180z" />
    <glyph glyph-name="notequal" unicode="&#x2260;" horiz-adv-x="1060" 
d="M1012 0h-963v1006h963v-1006z" />
    <glyph glyph-name="lessequal" unicode="&#x2264;" horiz-adv-x="634" 
d="M526 297l-411 164v26l411 164v-354z" />
    <glyph glyph-name="greaterequal" unicode="&#x2265;" horiz-adv-x="634" 
d="M541 461l-412 -164v354l412 -164v-26z" />
    <glyph glyph-name="apple" unicode="&#xf8ff;" horiz-adv-x="1980" 
d="M829 96q-25 0 -25 34t26 34q24 0 24 -34t-25 -34zM721 131h-6q-16 0 -17 16q0 13 12 13t11 -8v-21zM1133 162q10 0 0 -19q-10 19 0 19zM786 358q-24 0 -38 20t-14 51q0 30 28 30h12q8 -2 12 -15l19 -71q0 -14 -8 -15h-11zM1393 434q0 30 20 29q21 -1 37 -25t16 -53
t-20 -29t-37 24q-16 24 -16 54zM563 410q-31 0 -31 30q0 18 17 19q16 0 18 -10l6 -39h-10zM803 786h-23q-27 0 -26 23q0 23 26 22h23v-45zM1327 1146q1 30 21 30t36 -24t17 -54q-1 -29 -21 -29t-37 24q-16 23 -16 53zM535 1129q0 5 9 5t13 -1q-6 -9 -14 -9t-8 5zM1137 1129
q0 5 9 5t13 -1q-6 -9 -14 -9t-8 5zM350 1122q-31 0 -31 31q1 18 17 18t18 -10l6 -39h-10zM858 -180q0 -26 22 -25q22 0 23 26q0 26 -22 25q-23 0 -23 -26zM1593 -180q1 -26 23 -25q22 0 22 26t-22 25q-23 0 -23 -26zM1155 -188l-10 24l-10 -24h20zM784 -182q23 0 23 14
t-23 12v-26zM1075 -167q0 15 -22 11v-24q22 -2 22 13zM1219 -182q22 0 22 14t-22 12v-26zM608 111q0 -13 -10 -13h-2v-4h37v4q-12 2 -12 13v41l12 10v4h-37v-4q12 0 12 -10v-19q-4 0 -8 4l-16 17l2 8v4h-29v-4q10 -2 16 -8l21 -19l-27 -26l-14 -11v-4h35v4l-4 11l16 16
q4 4 8 4v-18zM745 94v4q-10 0 -10 11v41l10 12v4h-36q-27 0 -27 -19q0 -10 18 -18l-14 -20l-16 -11v-4h22l15 25q6 8 14 8v-18l-10 -11v-4h34zM829 92q41 0 41 38t-41 38t-41 -38t41 -38zM983 166h-31v-4l2 -10l-12 -19l-12 19l6 10v4h-31v-4q10 0 17 -10l16 -25v-16
l-10 -13v-4h35v4q-10 0 -11 13v16l17 25l14 10v4zM1194 166h-31v-4l4 -10l-18 -39l-10 20l8 17l12 12v4h-53l2 -4q7 0 20 -23l-14 -26l-16 37l4 12v4h-27v-4q8 -2 12 -12l27 -56h2q2 -2 2 0l17 33l18 -33h2l25 56q4 12 12 12h2v4zM1286 109v43q2 10 10 10v4h-59l-4 -21l4 -2
q6 16 18 17h9q8 0 8 -6v-21h-8l-13 10h-4v-26h4q0 12 13 12h8v-23q0 -6 -8 -6h-9q-10 0 -20 19l-4 -2l4 -23h61v4q-10 5 -10 11zM1352 150q0 10 8 10l4 2v4h-31v-4q12 -2 13 -12v-58h6l51 58v-41l-10 -11v-4h28v4q-12 2 -12 11v41l12 12v4h-20l-49 -53v37zM1694 260v12
h-1403v-12h1403zM602 461h4l-2 6h-55q-41 0 -41 -29t39 -32l-19 -33q-8 -17 -24 -17h-4l2 -6h39l24 47q4 6 10 6l7 -30q4 -17 -11 -17h-4l2 -6h60l-2 6q-16 -2 -21 17l-14 71q-2 8 2 12t8 5zM762 467q-51 0 -51 -45q1 -31 23 -51t48 -21h66l-2 8q-14 -4 -21 19l-16 63
q-6 18 16 21l-2 6h-61zM1049 461h4l-2 6h-29l-59 -86l-11 61q-4 17 11 17l4 2l-2 6h-43l2 -6q14 0 18 -19l16 -92l7 -2l61 90l12 -61q4 -21 -8 -21h-4l2 -6h43l-2 6q-12 0 -18 21l-15 65q-5 19 13 19zM1222 358q-30 0 -42 45l-9 39q-1 10 3 14t8 5h4v6h-49l2 -6q18 2 22 -19
l8 -39q11 -55 59 -55t38 49l-11 45q-4 19 11 19h6l-2 6h-60l2 -6q16 2 21 -19l10 -43q9 -41 -21 -41zM1622 414q-19 0 -25 18h-6l11 -47h6q-2 23 16 23h8l6 -35q2 -9 -2 -13t-8 -4h-4l2 -6h60l-3 6q-16 -2 -20 17l-14 71q-2 8 2 12t8 5h4l-2 6h-92v-35h8q-2 27 27 27h8
q10 0 12 -13l6 -32h-8zM379 471q-31 0 -29 -47q-14 47 -41 47t-26 -25l6 -2q0 12 16 13q33 0 49 -68q7 -28 -6 -31h-6l2 -8h57l-2 8q-14 -4 -20 19q-10 35 -10 57t18 21q10 0 25 -15l4 4q-14 27 -37 27zM1491 397q0 27 -24 51t-46 23q-53 0 -53 -45q0 -34 23 -56t46 -22
q54 0 54 49zM1694 555v12h-1403v-12h1403zM580 631v67h-29v133h29v70h-289v-127h84v57h67v-40h-49v-50h49v-43h-67v58h-84v-125h289zM938 631v67h-29v133h29v70h-197q-43 1 -69 -23t-27 -60q0 -36 27 -58t69 -23h62v-39h-31v-67h166zM1327 831v70h-166v-70h23l-31 -47
l-31 47h21v70h-127v-70h24l76 -94v-39h-29v-67h166v67h-30v41l75 92h29zM1694 774v127h-301v-127h73v57h23v-133h-29v-67h166v67h-29v133h23v-57h74zM1694 973v12h-1403v-12h1403zM715 1087q-10 0 -10 -11t10 -19t25 -8q16 0 26 13t20 13q8 -14 20 -14t13 6q0 16 -26 18
q-8 4 -11 30q-6 69 -40 69q-36 0 -35 -21q0 -10 9 -10t9 12t10 13q11 0 15 -16t9 -41q5 -24 19 -36q-16 0 -28 -13t-20 -13t-9 8l4 10q0 10 -10 10zM336 1180q-41 0 -41 -29t39 -33l-19 -33q-8 -16 -24 -16h-4l2 -6h39l24 47q4 6 10 6l7 -31q4 -16 -11 -16h-4l2 -6h60l-2 6
q-16 -2 -21 16l-14 72q-3 14 10 17h4l-2 6h-55zM956 1126q-18 0 -24 19h-6l10 -47h6q-2 23 16 22h9l6 -35q4 -16 -10 -16h-5l3 -6h59l-2 6q-16 -2 -21 16l-14 72q-3 14 10 17h4l-2 6h-92v-35h8q-2 27 27 26h8q10 0 12 -12l7 -33h-9zM1550 1069h-4l2 -6h60l-2 6
q-16 -2 -21 16l-6 33h49l6 -33q4 -16 -10 -16h-4l2 -6h59l-2 6q-16 -2 -20 16l-14 72q-3 14 10 17h4l-2 6h-58l3 -6q14 2 18 -17l6 -31h-49l-6 31q-3 14 10 17h4l-2 6h-59l2 -6q16 2 20 -17l15 -72q4 -16 -11 -16zM553 1098q0 10 -16 10t-17 -21q0 -27 42 -27t42 40
q0 25 -29 35q10 6 11 18q0 31 -35 31t-35 -23q0 -12 9 -12t10 6l-7 12q0 10 15 11q20 0 20 -25q0 -8 -4 -12q-33 3 -33 -11t14 -14t25 10q13 -8 13 -34t-25 -25q-25 0 -25 18q0 6 7 7q3 -3 10 -5q8 1 8 11zM1155 1098q0 10 -16 10t-17 -21q0 -27 42 -27t42 40q0 25 -28 35
q10 6 10 18q0 31 -35 31t-35 -23q0 -12 9 -12t10 6l-7 12q0 10 15 11q20 0 20 -25q0 -8 -4 -12q-33 3 -33 -11t14 -14t25 10q13 -8 13 -34t-25 -25q-25 0 -25 18q0 6 7 7q3 -3 10 -5q8 1 8 11zM1425 1110q1 26 -23 50t-46 24q-53 0 -53 -45q1 -33 23 -56q40 -41 84 -11
q15 11 15 38zM1694 1266v12h-1403v-12h1403zM889 1370v43q2 10 10 10v4h-59l-4 -20l4 -2q6 16 18 16h8q8 0 8 -6v-20h-8l-12 10h-4v-27h4q0 12 12 13h8v-23q0 -6 -8 -6h-8q-11 0 -20 18l-4 -2l4 -22h61v4q-10 5 -10 10zM956 1413v-43l-10 -10v-4h35v4q-10 0 -10 10v21h35
v-21q-2 -10 -11 -10v-4h37v4q-12 -2 -12 10v43l12 10v4h-37v-4q11 -5 11 -10v-18h-35v18q2 10 10 10v4h-35v-4q10 -5 10 -10zM1120 1423q12 0 21 -18h4q0 16 -2 25q-4 -2 -35 -2t-37 2l-2 -25h4q8 18 21 18q6 0 6 -6v-47q-2 -10 -10 -10v-4h34v4q-10 5 -10 10v47q0 6 6 6z
M582 -207q0 -8 -8 -8t-9 8q1 8 9 8t8 -8zM1466 -207q0 -8 -8 -8t-8 8t8 8t8 -8zM317 -145l-24 -70h-2l-23 47l-20 -47h-2l-25 70l12 2l15 -47l20 47h2l21 -47l14 45h12zM432 -145l-24 -70h-2l-23 47l-21 -47h-2l-24 70l12 2l14 -47l21 47h2l21 -47l14 45h12zM547 -145
l-25 -70h-2l-22 47l-21 -47h-2l-24 70l12 2l14 -47l21 47h2l20 -47l15 45h12zM662 -145v-11h-25v-57h-12v57h-25v11h62zM719 -213h-12v29l-29 39l12 2l23 -31l18 29h14l-26 -39v-29zM819 -166q0 -27 -35 -27v-20h-12v68q47 6 47 -21zM915 -178q0 -37 -34 -37q-14 0 -25 10
q-10 10 -10 25q0 37 37 37q14 -1 23 -11t9 -24zM979 -215q-37 0 -37 35t39 37q12 0 25 -9l-5 -10q-8 8 -22 8q-25 0 -25 -26t27 -25q4 0 12 4v15h-18v10h31v-31q-12 -8 -27 -8zM1053 -190v-23h-13v68q47 6 47 -21q0 -14 -14 -20l21 -27h-15l-16 23h-10zM1180 -213h-13l-8 16
h-29l-6 -16h-12l31 70h4zM1253 -166q0 -27 -34 -27v-20h-13v68q47 6 47 -21zM1343 -213h-12v31h-33v-31h-12v68h12v-27h33v27h12v-68zM1411 -213h-12v29l-29 39l12 2l23 -31l18 29h15l-27 -39v-29zM1530 -215q-37 0 -37 35q0 16 11 26q12 10 26 10t22 -6l-4 -10q-6 6 -18 6
q-25 0 -25 -26t27 -25q8 0 20 8l-2 -12q-6 -6 -20 -6zM1651 -178q0 -37 -35 -37q-14 0 -25 10q-10 10 -10 25q0 37 37 37q14 -1 24 -11t9 -24zM1759 -213h-12l-6 41l-21 -43h-4l-20 43l-6 -41h-13l13 70h2l26 -54l27 54h2zM1778 0h-1571v1536h1571v-1536z" />
    <glyph glyph-name="fi" unicode="&#xfb01;" horiz-adv-x="475" 
d="M432 0h-131v1006h131v-1006zM250 864h-55v-864h-132v864h-49v142h49v110q0 124 40 186t135 62h14v-141h-16q-45 0 -46 -80v-137h60v-142zM426 1114h-119v180h119v-180z" />
    <glyph glyph-name="fl" unicode="&#xfb02;" horiz-adv-x="475" 
d="M250 864h-55v-864h-132v864h-49v142h49v110q0 124 40 186t135 62h14v-141h-16q-45 0 -46 -80v-137h60v-142zM432 0h-131v1364h131v-1364z" />
    </font>
</defs>
</svg>
